<svg width="131" height="20" viewBox="0 0 131 20" fill="none" xmlns="http://www.w3.org/2000/svg">
<g opacity="0.64">
<path d="M7.58895 19.2481C6.68531 19.2481 5.88782 19.0548 5.19649 18.6683C4.5106 18.2764 3.97168 17.7402 3.57974 17.0598C3.19325 16.3739 3 15.59 3 14.7081C3 13.7446 3.19053 12.9063 3.57158 12.1932C3.95263 11.4801 4.47793 10.9276 5.1475 10.5356C5.81706 10.1382 6.58733 9.93954 7.4583 9.93954C8.38371 9.93954 9.17031 10.1573 9.8181 10.5928C10.4659 11.0283 10.9449 11.6407 11.2552 12.43C11.5655 13.2193 11.6744 14.1474 11.5818 15.2144H9.38533V14.3978C9.38533 13.4996 9.24108 12.8546 8.95257 12.4626C8.6695 12.0653 8.20407 11.8666 7.55629 11.8666C6.79963 11.8666 6.24166 12.0979 5.88238 12.5606C5.52855 13.0179 5.35163 13.6956 5.35163 14.5938C5.35163 15.4158 5.52855 16.0527 5.88238 16.5045C6.24166 16.9509 6.76696 17.1741 7.4583 17.1741C7.89379 17.1741 8.26667 17.0788 8.57696 16.8883C8.88724 16.6978 9.12404 16.4229 9.28735 16.0636L11.5083 16.7005C11.1763 17.5061 10.651 18.1321 9.93241 18.5785C9.2193 19.0249 8.43815 19.2481 7.58895 19.2481ZM4.66574 15.2144V13.565H10.5122V15.2144H4.66574Z" fill="#192638"/>
<path d="M12.1267 19.0031L15.2786 14.5448L12.1921 10.1845H14.805L16.5687 12.7974L18.2998 10.1845H20.9127L17.8262 14.5448L20.9943 19.0031H18.3814L16.5687 16.2922L14.7397 19.0031H12.1267Z" fill="#192638"/>
<path d="M22.4719 8.95969V7H24.6929V8.95969H22.4719ZM22.4719 19.0031V10.1845H24.6929V19.0031H22.4719Z" fill="#192638"/>
<path d="M37.7558 19.0031V13.7936C37.7558 13.2111 37.617 12.7593 37.3394 12.4381C37.0672 12.1115 36.6889 11.9482 36.2044 11.9482C35.8941 11.9482 35.6247 12.0217 35.396 12.1687C35.1674 12.3102 34.9878 12.5116 34.8571 12.7729C34.7319 13.0288 34.6693 13.3255 34.6693 13.663L33.7385 13.0424C33.7385 12.4381 33.88 11.9047 34.1631 11.442C34.4516 10.9793 34.8354 10.62 35.3144 10.3641C35.7989 10.1028 36.3351 9.9722 36.923 9.9722C37.93 9.9722 38.6894 10.2716 39.2011 10.8704C39.7183 11.4637 39.9768 12.2422 39.9768 13.2057V19.0031H37.7558ZM27.1245 19.0031V10.1845H29.0842V13.1077H29.3618V19.0031H27.1245ZM32.4483 19.0031V13.7936C32.4483 13.2111 32.3095 12.7593 32.0319 12.4381C31.7597 12.1115 31.3814 11.9482 30.8969 11.9482C30.4342 11.9482 30.0613 12.1088 29.7783 12.43C29.5006 12.7457 29.3618 13.1567 29.3618 13.663L28.431 13.0097C28.431 12.4327 28.5752 11.9156 28.8637 11.4583C29.1522 11.001 29.5387 10.639 30.0232 10.3723C30.5131 10.1056 31.0602 9.9722 31.6645 9.9722C32.3558 9.9722 32.9219 10.1192 33.3629 10.4131C33.8092 10.7071 34.1386 11.099 34.3509 11.5889C34.5632 12.0789 34.6693 12.6178 34.6693 13.2057V19.0031H32.4483Z" fill="#192638"/>
<path d="M46.0396 19.2481C45.136 19.2481 44.3385 19.0548 43.6472 18.6683C42.9613 18.2764 42.4224 17.7402 42.0304 17.0598C41.6439 16.3739 41.4507 15.59 41.4507 14.7081C41.4507 13.7446 41.6412 12.9063 42.0223 12.1932C42.4033 11.4801 42.9286 10.9276 43.5982 10.5356C44.2677 10.1382 45.038 9.93954 45.909 9.93954C46.8344 9.93954 47.621 10.1573 48.2688 10.5928C48.9166 11.0283 49.3956 11.6407 49.7059 12.43C50.0162 13.2193 50.125 14.1474 50.0325 15.2144H47.836V14.3978C47.836 13.4996 47.6917 12.8546 47.4032 12.4626C47.1202 12.0653 46.6547 11.8666 46.007 11.8666C45.2503 11.8666 44.6923 12.0979 44.3331 12.5606C43.9792 13.0179 43.8023 13.6956 43.8023 14.5938C43.8023 15.4158 43.9792 16.0527 44.3331 16.5045C44.6923 16.9509 45.2176 17.1741 45.909 17.1741C46.3445 17.1741 46.7174 17.0788 47.0276 16.8883C47.3379 16.6978 47.5747 16.4229 47.738 16.0636L49.959 16.7005C49.6269 17.5061 49.1016 18.1321 48.3831 18.5785C47.67 19.0249 46.8888 19.2481 46.0396 19.2481ZM43.1164 15.2144V13.565H48.9628V15.2144H43.1164Z" fill="#192638"/>
<path d="M55.9752 19.2481C55.0716 19.2481 54.2741 19.0548 53.5828 18.6683C52.8969 18.2764 52.358 17.7402 51.966 17.0598C51.5795 16.3739 51.3863 15.59 51.3863 14.7081C51.3863 13.7446 51.5768 12.9063 51.9579 12.1932C52.3389 11.4801 52.8642 10.9276 53.5338 10.5356C54.2034 10.1382 54.9736 9.93954 55.8446 9.93954C56.77 9.93954 57.5566 10.1573 58.2044 10.5928C58.8522 11.0283 59.3312 11.6407 59.6415 12.43C59.9518 13.2193 60.0607 14.1474 59.9681 15.2144H57.7716V14.3978C57.7716 13.4996 57.6274 12.8546 57.3389 12.4626C57.0558 12.0653 56.5904 11.8666 55.9426 11.8666C55.1859 11.8666 54.6279 12.0979 54.2687 12.5606C53.9148 13.0179 53.7379 13.6956 53.7379 14.5938C53.7379 15.4158 53.9148 16.0527 54.2687 16.5045C54.6279 16.9509 55.1533 17.1741 55.8446 17.1741C56.2801 17.1741 56.653 17.0788 56.9632 16.8883C57.2735 16.6978 57.5103 16.4229 57.6736 16.0636L59.8946 16.7005C59.5626 17.5061 59.0373 18.1321 58.3187 18.5785C57.6056 19.0249 56.8244 19.2481 55.9752 19.2481ZM53.052 15.2144V13.565H58.8984V15.2144H53.052Z" fill="#192638"/>
</g>
<path d="M62.75 19V0.999999H69.95C71.2333 0.999999 72.2708 1.25833 73.0625 1.775C73.8542 2.28333 74.4333 2.925 74.8 3.7C75.1667 4.475 75.35 5.25833 75.35 6.05C75.35 7.05833 75.1208 7.89583 74.6625 8.5625C74.2125 9.22917 73.5917 9.675 72.8 9.9V9.275C73.925 9.50833 74.7667 10.0292 75.325 10.8375C75.8917 11.6458 76.175 12.55 76.175 13.55C76.175 14.625 75.975 15.5708 75.575 16.3875C75.1833 17.2042 74.5833 17.8458 73.775 18.3125C72.9667 18.7708 71.95 19 70.725 19H62.75ZM66.2 15.8H70.375C70.8333 15.8 71.2417 15.7042 71.6 15.5125C71.9583 15.3125 72.2375 15.0375 72.4375 14.6875C72.6458 14.3292 72.75 13.9083 72.75 13.425C72.75 13 72.6625 12.6208 72.4875 12.2875C72.3125 11.9542 72.0458 11.6917 71.6875 11.5C71.3375 11.3 70.9 11.2 70.375 11.2H66.2V15.8ZM66.2 8.025H69.9C70.2833 8.025 70.625 7.95833 70.925 7.825C71.225 7.69167 71.4625 7.4875 71.6375 7.2125C71.8125 6.92917 71.9 6.56667 71.9 6.125C71.9 5.575 71.7292 5.1125 71.3875 4.7375C71.0458 4.3625 70.55 4.175 69.9 4.175H66.2V8.025ZM78.668 19V0.999999H86.268C86.443 0.999999 86.6763 1.00833 86.968 1.025C87.268 1.03333 87.5346 1.05833 87.768 1.1C88.843 1.26667 89.7221 1.62083 90.4055 2.1625C91.0971 2.70417 91.6055 3.3875 91.9305 4.2125C92.2555 5.02917 92.418 5.94167 92.418 6.95C92.418 7.95833 92.2513 8.875 91.918 9.7C91.593 10.5167 91.0846 11.1958 90.393 11.7375C89.7096 12.2792 88.8346 12.6333 87.768 12.8C87.5346 12.8333 87.268 12.8583 86.968 12.875C86.668 12.8917 86.4346 12.9 86.268 12.9H82.068V19H78.668ZM82.068 9.725H86.118C86.293 9.725 86.4846 9.71667 86.693 9.7C86.9013 9.68333 87.093 9.65 87.268 9.6C87.7263 9.475 88.0805 9.26667 88.3305 8.975C88.5805 8.675 88.7513 8.34583 88.843 7.9875C88.943 7.62083 88.993 7.275 88.993 6.95C88.993 6.625 88.943 6.28333 88.843 5.925C88.7513 5.55833 88.5805 5.22917 88.3305 4.9375C88.0805 4.6375 87.7263 4.425 87.268 4.3C87.093 4.25 86.9013 4.21667 86.693 4.2C86.4846 4.18333 86.293 4.175 86.118 4.175H82.068V9.725ZM94.9277 19V0.999999H97.9777L103.928 12.95L109.878 0.999999H112.928V19H109.753V8.25L104.528 19H103.328L98.1027 8.25V19H94.9277ZM123.237 19.375C121.903 19.375 120.699 19.1417 119.624 18.675C118.557 18.2 117.678 17.525 116.987 16.65C116.303 15.7667 115.87 14.7167 115.687 13.5L119.237 12.975C119.487 14.0083 120.003 14.8042 120.787 15.3625C121.57 15.9208 122.462 16.2 123.462 16.2C124.02 16.2 124.562 16.1125 125.087 15.9375C125.612 15.7625 126.041 15.5042 126.374 15.1625C126.716 14.8208 126.887 14.4 126.887 13.9C126.887 13.7167 126.857 13.5417 126.799 13.375C126.749 13.2 126.662 13.0375 126.537 12.8875C126.412 12.7375 126.232 12.5958 125.999 12.4625C125.774 12.3292 125.487 12.2083 125.137 12.1L120.462 10.725C120.112 10.625 119.703 10.4833 119.237 10.3C118.778 10.1167 118.332 9.85417 117.899 9.5125C117.466 9.17083 117.103 8.72083 116.812 8.1625C116.528 7.59583 116.387 6.88333 116.387 6.025C116.387 4.81667 116.691 3.8125 117.299 3.0125C117.907 2.2125 118.72 1.61667 119.737 1.225C120.753 0.833332 121.878 0.641666 123.112 0.649999C124.353 0.666666 125.462 0.879166 126.437 1.2875C127.412 1.69583 128.228 2.29167 128.887 3.075C129.545 3.85 130.02 4.8 130.312 5.925L126.637 6.55C126.503 5.96667 126.257 5.475 125.899 5.075C125.541 4.675 125.112 4.37083 124.612 4.1625C124.12 3.95417 123.603 3.84167 123.062 3.825C122.528 3.80833 122.024 3.88333 121.549 4.05C121.082 4.20833 120.699 4.44167 120.399 4.75C120.107 5.05833 119.962 5.425 119.962 5.85C119.962 6.24167 120.082 6.5625 120.324 6.8125C120.566 7.05417 120.87 7.25 121.237 7.4C121.603 7.55 121.978 7.675 122.362 7.775L125.487 8.625C125.953 8.75 126.47 8.91667 127.037 9.125C127.603 9.325 128.145 9.60833 128.662 9.975C129.187 10.3333 129.616 10.8083 129.949 11.4C130.291 11.9917 130.462 12.7417 130.462 13.65C130.462 14.6167 130.257 15.4625 129.849 16.1875C129.449 16.9042 128.907 17.5 128.224 17.975C127.541 18.4417 126.766 18.7917 125.899 19.025C125.041 19.2583 124.153 19.375 123.237 19.375Z" fill="#192638"/>
</svg>